# xmcd
#
# Track frame offsets: 
#        150
#        41247
#        67020
#        83587
#        101457
#        120070
#        151835
#        165732
#        204487
#        229950
#        242725
#        277742
#        289322
#        315275
#        333577
#
# Disc length: 4719 seconds
#
# Revision: 2
# Processed by: cddbd v1.5.2PL0 Copyright (c) Steve Scherf et al.
# Submitted via: ExactAudioCopy v1.0b3
#
DISCID=c4126d0f
DTITLE=Various Artist - BLUE NOTE JAZZ -A RECOMMENDATTION OF ALFRED LION-
DYEAR=2003
DGENRE=Jazz
TTITLE0=Art Blakey - A Night In Tunisia
TTITLE1=Andrew Hill - Subterfuge
TTITLE2=Clifford Brown - Brownie Speaks
TTITLE3=Sidney Bechet - Dear Old Southland
TTITLE4=Sidney Bechet - Dear Old Southland
TTITLE5=John Coltrane - Blue Train
TTITLE6=Thelonious Monk - Ruby My Dear
TTITLE7=Sonny Clark - Blue Minor
TTITLE8=Sonny Clark - Blue Minor
TTITLE9=Bud Powell - Dance Of The Infidels
TTITLE10=Herbie Hancock - Dolphin Dance
TTITLE11=Hank Mobley - Wham And They're Off
TTITLE12=Horace Silver - Senor Blues
TTITLE13=Miles Davis - Dear Old Stockholm
TTITLE14=Lee Morgan - I Remember Clifford
EXTD=YEAR: 2003
EXTT0=
EXTT1=
EXTT2=
EXTT3=
EXTT4=
EXTT5=
EXTT6=
EXTT7=
EXTT8=
EXTT9=
EXTT10=
EXTT11=
EXTT12=
EXTT13=
EXTT14=
PLAYORDER=
